 <svg width="0" height="0" class="hidden">
    <symbol xmlns="http://www.w3.org/2000/svg" viewBox="0 0 24 24" aria-hidden="true"
        id="sun">
        <path
            d="M6.995 12c0 2.761 2.246 5.007 5.007 5.007s5.007-2.246 5.007-5.007-2.246-5.007-5.007-5.007S6.995 9.239 6.995 12zM11 19h2v3h-2zm0-17h2v3h-2zm-9 9h3v2H2zm17 0h3v2h-3zM5.637 19.778l-1.414-1.414 2.121-2.121 1.414 1.414zM16.242 6.344l2.122-2.122 1.414 1.414-2.122 2.122zM6.344 7.759 4.223 5.637l1.415-1.414 2.12 2.122zm13.434 10.605-1.414 1.414-2.122-2.122 1.414-1.414z">
        </path>
    </symbol>
    <symbol xmlns="http://www.w3.org/2000/svg" viewBox="0 0 24 24" aria-hidden="true"
        id="moon">
        <path
            d="M12 11.807A9.002 9.002 0 0 1 10.049 2a9.942 9.942 0 0 0-5.12 2.735c-3.905 3.905-3.905 10.237 0 14.142 3.906 3.906 10.237 3.905 14.143 0a9.946 9.946 0 0 0 2.735-5.119A9.003 9.003 0 0 1 12 11.807z">
        </path>
    </symbol>
    <!-- <symbol xmlns="http://www.w3.org/2000/svg" viewBox="0 0 24 24" aria-hidden="true"
        id="logo">
        <path d="M12 2C6.486 2 2 6.486 2 12s4.486 10 10 10 10-4.486 10-10S17.514 2 12 2zm3.293 14.707L11 12.414V6h2v5.586l3.707 3.707-1.414 1.414z"></path>
    </symbol> -->
    <symbol xmlns="http://www.w3.org/2000/svg" viewBox="0 0 24 24" aria-hidden="true"
        id="logo">
        <path 
            d="M12 2C6.486 2 2 6.486 2 12s4.486 10 10 10 10-4.486 10-10S17.514 2 12 2zm0 18c-4.411 0-8-3.589-8-8s3.589-8 8-8 8 3.589 8 8-3.589 8-8 8z">
        </path>
        <path 
            d="M13 7h-2v5.414l3.293 3.293 1.414-1.414L13 11.586z">
        </path>
    </symbol>
 </svg>